<svg version="1.1" id="Layer_1" xmlns="http://www.w3.org/2000/svg" xmlns:xlink="http://www.w3.org/1999/xlink" x="0px" y="0px"
	 width="100%" viewBox="0 0 324 293" enable-background="new 0 0 324 293" xml:space="preserve">
<path fill="#080808" opacity="1.000000" stroke="none" 
	d="
M1.000000,290.000000 
	C1.000000,284.977905 1.000000,279.955811 1.450862,274.336182 
	C20.149490,273.738678 38.397255,273.738678 56.645020,273.738678 
	C56.666386,273.245575 56.687756,272.752472 56.709122,272.259369 
	C38.278328,269.239502 19.755575,267.720154 1.000000,270.000000 
	C1.000000,266.638702 1.000000,263.277435 1.427758,259.246948 
	C13.284700,258.577759 24.713884,258.577759 36.143066,258.577759 
	C36.280979,258.011444 36.418892,257.445129 36.556801,256.878815 
	C32.310959,252.417435 28.143566,247.875427 23.732502,243.583878 
	C23.089790,242.958572 20.889578,243.012253 20.078373,243.629745 
	C14.247211,248.068283 7.567028,247.107773 1.000000,247.000000 
	C1.000000,241.645065 1.000000,236.290146 1.380919,230.520676 
	C3.563525,229.385071 5.486773,228.862778 7.119010,227.864609 
	C8.024616,227.310806 8.444164,225.962189 9.082802,224.971832 
	C7.959259,224.769318 6.831416,224.382492 5.713203,224.408569 
	C4.138394,224.445297 2.570723,224.788086 0.999999,225.000000 
	C1.000000,159.312439 1.000000,93.624878 1.312280,27.252592 
	C6.920854,31.812027 12.217146,37.056187 17.659304,42.610424 
	C20.415144,42.521923 23.025122,42.123341 25.635098,41.724762 
	C25.733988,41.114407 25.832880,40.504047 25.931770,39.893692 
	C23.326908,37.861828 20.722046,35.829960 17.901207,33.547356 
	C12.531507,26.822651 7.377784,20.348688 2.098627,13.427265 
	C2.981696,12.225323 3.947338,10.894255 5.006076,10.815553 
	C9.744494,10.463320 14.509439,10.467946 19.610657,10.383429 
	C20.649925,10.478335 21.343346,10.533557 22.198864,10.896530 
	C26.728109,15.047752 31.205032,18.775583 35.421261,22.778027 
	C37.953873,25.182217 39.591633,24.277197 41.699810,22.246086 
	C43.864891,20.160152 44.017773,18.575132 41.793793,16.461567 
	C40.392895,15.130225 39.426090,13.342109 37.497753,10.713710 
	C40.697887,10.713710 42.331276,10.712255 43.964664,10.713925 
	C74.930519,10.745604 105.896370,10.785777 136.862228,10.788838 
	C138.663803,10.789016 140.465408,10.489062 142.702972,10.365884 
	C145.807098,10.544939 148.475266,10.686893 151.114594,11.210800 
	C150.710114,13.044160 150.334473,14.495565 149.604706,16.139967 
	C144.250534,17.395670 139.250275,18.457378 134.250504,19.521282 
	C121.680176,22.196127 108.901901,24.177156 97.534866,30.800165 
	C95.985611,31.702841 94.278175,32.780136 92.579018,32.907074 
	C81.519127,33.733292 73.795532,40.585636 66.011940,47.319653 
	C63.389339,49.588604 60.482407,51.816765 58.666992,54.674431 
	C54.061043,61.924732 50.528316,69.894150 45.591801,76.888115 
	C38.739033,86.597000 31.820009,96.176765 26.974655,107.228653 
	C25.281279,106.668404 23.972479,106.163445 22.632273,105.646378 
	C20.998781,112.541191 19.384121,119.356529 17.710241,126.421822 
	C20.341570,126.740707 21.968943,126.937920 23.675316,127.522339 
	C23.434504,136.282898 23.114689,144.656250 22.537891,153.168823 
	C20.359009,153.093842 18.437109,152.879654 16.195053,152.629791 
	C16.195053,155.292053 15.856435,157.972107 16.272594,160.529358 
	C16.934881,164.599014 18.266655,168.556152 19.014240,172.616318 
	C20.163033,178.855423 20.905760,179.442230 27.260975,178.246643 
	C27.799473,179.872635 28.152719,181.205276 28.377277,182.917953 
	C28.706957,183.864594 29.165323,184.431183 29.729977,185.333466 
	C29.834839,186.137421 29.833418,186.605637 29.367687,187.058838 
	C28.258789,187.630753 27.179010,188.127869 27.036415,188.818481 
	C25.481173,196.350800 29.403990,203.616455 36.990772,207.367188 
	C37.522888,208.017273 37.869026,208.386627 38.128105,208.809326 
	C55.068573,236.447891 80.701309,252.990479 110.192986,264.003510 
	C127.656487,270.524872 146.146301,269.578552 164.748215,268.438721 
	C166.098190,268.372314 167.156250,268.086334 168.621887,267.711578 
	C170.695328,267.464905 172.361191,267.307037 174.306885,267.379456 
	C177.578873,267.082153 180.591980,266.651215 183.558899,266.007416 
	C190.349045,264.533936 197.116608,262.956421 202.941986,261.636658 
	C202.595734,258.273773 202.331818,255.710556 202.365662,253.074463 
	C203.037979,252.838440 203.412506,252.675278 204.129898,252.699875 
	C215.721390,248.921906 215.721390,248.921906 215.202484,244.666565 
	C211.339935,246.275284 207.581375,247.840698 203.553299,249.409149 
	C202.934525,249.492599 202.585251,249.572998 201.947418,249.521408 
	C201.011230,249.826370 200.363586,250.263321 199.345856,250.765884 
	C197.363281,251.411240 195.750778,251.990982 193.810760,252.465210 
	C192.484695,252.768585 191.486176,253.177490 190.140991,253.622452 
	C188.896896,253.891510 187.999435,254.124481 186.804474,254.253174 
	C186.016724,254.489288 185.526474,254.829681 184.611908,255.194473 
	C182.507172,255.384109 180.826752,255.549332 178.860779,255.583786 
	C177.932419,255.885727 177.289597,256.318420 176.271301,256.769379 
	C174.676376,256.470398 173.095154,256.530365 172.301590,255.769150 
	C169.241119,252.833466 166.775360,253.321350 163.762436,256.016296 
	C162.240555,257.377502 159.672028,258.405640 157.676514,258.255798 
	C148.915771,257.598022 140.111588,256.911652 131.469376,255.399826 
	C108.329529,251.351852 88.397285,240.847244 71.768097,224.055542 
	C72.884125,222.468918 73.849503,221.216919 74.833488,219.940765 
	C72.925163,217.868698 71.266006,216.048874 69.586678,214.247849 
	C66.739380,211.194244 63.879360,208.152527 60.879154,204.893921 
	C60.584763,203.533203 60.675560,201.496002 60.247890,201.380630 
	C57.602673,200.667007 54.840809,200.385757 51.917984,199.607483 
	C51.225178,198.361053 50.732082,197.468033 50.691765,196.726456 
	C51.777969,196.900238 52.411392,196.922562 53.339920,196.935394 
	C54.130856,196.642517 54.626694,196.359161 55.439850,196.010284 
	C55.065155,194.270020 54.373150,192.595245 53.699036,190.640045 
	C53.455433,189.908401 53.193935,189.457169 52.941017,188.661072 
	C52.621067,187.214401 52.292542,186.112610 51.967014,184.713272 
	C51.621334,183.950455 51.272655,183.485184 50.934628,182.689392 
	C50.869720,181.926666 50.794167,181.494461 50.767818,180.750473 
	C50.328568,179.788849 49.840111,179.138992 49.373558,178.169952 
	C49.289417,177.225098 49.183369,176.599442 49.083607,175.673599 
	C48.734791,174.913391 48.379688,174.453384 48.023628,173.598389 
	C47.018528,170.134872 46.014385,167.066345 45.003708,163.530060 
	C44.904701,157.397415 44.812225,151.732529 44.830818,145.718414 
	C44.868786,144.891876 44.795681,144.414551 44.788864,143.477264 
	C44.853764,136.407806 44.852371,129.798294 44.939873,122.811768 
	C45.016560,121.660355 45.004353,120.885956 45.385994,120.145630 
	C46.565689,119.369308 47.752274,118.691368 48.071171,117.726608 
	C49.892578,112.216331 51.507450,106.637772 53.525612,100.985931 
	C54.595764,99.311699 55.332787,97.733940 56.348587,95.949463 
	C61.048008,88.955818 64.917221,81.719421 70.005661,75.476822 
	C80.165771,63.012222 92.563286,53.026737 106.662346,45.173187 
	C108.115700,44.363632 108.946777,42.436943 110.036102,41.016533 
	C110.005615,41.004444 110.004593,41.070042 110.285828,41.275173 
	C110.753204,41.341705 110.939331,41.203110 111.486954,40.982132 
	C112.557686,38.914070 113.266930,36.928387 114.162201,34.729919 
	C114.703148,34.399307 115.058067,34.281475 115.808273,34.391640 
	C118.771225,35.118851 121.338898,35.618065 124.146805,36.410736 
	C127.601097,36.100227 130.815155,35.496265 134.375000,34.919991 
	C135.832474,34.695148 136.944168,34.442627 138.209167,34.394363 
	C138.934555,34.186115 139.506638,33.773602 140.522919,33.256256 
	C144.620239,32.984550 148.273376,32.817677 152.333527,32.760918 
	C153.528091,32.647427 154.315613,32.423820 155.394287,32.304115 
	C156.091217,32.363785 156.497009,32.319561 157.204376,32.513424 
	C158.006088,32.848671 158.506195,32.945831 159.069565,33.412201 
	C162.619644,36.379292 165.405746,34.819244 168.453629,32.120636 
	C176.255264,32.315411 183.630493,32.672020 191.226532,33.279991 
	C192.323959,33.657349 193.200592,33.783340 194.404480,34.077133 
	C199.099396,35.120174 203.467026,35.995407 208.102814,36.945015 
	C208.551620,37.058926 208.732285,37.098457 208.979706,37.466202 
	C210.038376,38.518585 211.030304,39.242756 212.333984,40.120338 
	C213.756683,40.519470 214.867630,40.765194 216.242767,41.252586 
	C219.677185,42.715500 222.847382,43.936752 226.166138,45.426598 
	C229.519760,47.139355 232.724792,48.583511 236.153320,50.283066 
	C237.592026,49.696175 238.807251,48.853882 240.010559,48.005836 
	C239.998642,48.000080 240.012665,48.022968 240.350037,48.024925 
	C241.137817,48.025269 241.588226,48.023659 242.338379,48.025055 
	C243.037827,48.029461 243.437515,48.030865 243.936829,48.370346 
	C249.507019,54.058704 250.511826,54.277966 254.462692,49.975769 
	C250.580627,47.266300 246.790894,44.621273 242.998322,41.989197 
	C242.995483,42.002144 243.021851,42.004745 242.910141,41.780338 
	C242.530273,41.363720 242.262115,41.171509 241.995789,40.991585 
	C241.997620,41.003872 242.022049,40.999298 241.964417,40.658142 
	C237.424881,37.964821 232.942963,35.612663 228.114380,33.201786 
	C216.131439,29.205872 204.495148,25.268677 192.474426,21.214787 
	C185.070526,20.119675 177.960098,19.548389 171.066132,18.008257 
	C167.010925,17.102314 161.994156,18.311678 159.105835,13.522166 
	C159.056580,12.413907 158.981750,11.677012 159.369232,10.861716 
	C161.653381,10.544029 163.475220,10.304743 165.739975,10.110862 
	C216.634598,10.162572 267.086334,10.172265 317.538055,10.158442 
	C319.015869,10.158037 320.493622,9.909588 322.305145,10.157907 
	C322.769745,11.517274 323.015228,12.495523 323.015228,13.473772 
	C323.015137,105.625587 322.996338,197.777405 322.513428,289.964142 
	C215.032059,289.999359 108.016029,289.999695 1.000000,290.000000 
M305.916107,172.958008 
	C306.898438,170.592316 307.880768,168.226639 309.070221,164.971069 
	C309.228333,163.529358 310.074310,161.508713 309.429596,160.742691 
	C306.004578,156.673187 308.002563,152.139969 307.856720,147.815247 
	C307.749542,144.636581 307.835693,141.451416 307.835693,138.269165 
	C307.208252,138.152557 306.580811,138.035950 305.953369,137.919357 
	C305.426636,139.029037 304.651672,140.087723 304.411530,141.256332 
	C302.024536,152.872055 299.725830,164.505951 297.126221,176.809189 
	C296.258148,178.381958 295.432159,179.979874 294.511627,181.521301 
	C293.281952,183.580338 291.978882,185.595551 290.097229,188.042648 
	C289.987946,189.756729 289.878693,191.470795 289.565033,193.921509 
	C284.614990,201.965744 279.664978,210.009964 274.270935,218.775726 
	C259.970520,195.915848 243.293610,176.438721 233.662125,152.026001 
	C235.255508,151.390381 236.701279,150.727234 238.201782,150.228989 
	C248.608521,146.773300 256.690979,140.631119 260.966736,130.255325 
	C265.189148,120.008949 265.689117,109.476387 264.124695,98.501495 
	C262.340118,85.982437 254.001526,75.140633 241.692719,72.089737 
	C219.558929,66.603615 197.033997,69.612732 174.655396,69.542419 
	C174.520218,69.541992 174.384460,69.724289 174.182785,69.868622 
	C178.827606,117.578934 174.373627,165.454361 175.837479,213.481232 
	C185.826233,213.481232 195.531479,213.481232 205.807022,213.481232 
	C205.150711,210.138321 204.148392,207.270813 204.096039,204.386078 
	C203.845139,190.561478 203.797913,176.732025 203.848114,162.904907 
	C203.853210,161.506943 204.784134,159.142532 205.664444,158.948792 
	C206.930481,158.670166 208.727554,159.732758 209.956573,160.670380 
	C211.097748,161.540970 211.870926,162.947754 212.669907,164.205017 
	C225.740952,184.773178 238.760605,205.374054 251.861115,225.923386 
	C256.310211,232.902176 256.043488,234.167999 249.817642,239.523956 
	C247.395172,241.607971 245.689209,244.524887 243.656876,247.062408 
	C244.114227,247.691055 244.571564,248.319717 245.028915,248.948380 
	C248.373352,247.907135 252.322647,247.653320 254.928986,245.651230 
	C259.532288,242.115189 262.398804,243.668213 266.154266,246.842957 
	C272.082886,251.854858 278.206635,256.786621 284.839050,260.767059 
	C290.030090,263.882446 296.056244,264.269531 301.693054,260.314606 
	C301.289490,259.452271 301.079865,258.819672 300.727875,258.279907 
	C295.116119,249.673660 289.380859,241.145691 283.901855,232.456039 
	C280.868011,227.644363 280.358856,222.952103 284.140503,217.764282 
	C291.749451,207.326004 298.499237,196.328018 301.941223,183.103195 
	C302.194366,182.367081 302.447479,181.630951 302.941040,180.203293 
	C303.366089,178.812317 303.791138,177.421356 304.831146,175.709183 
	C304.958313,174.812378 305.085510,173.915573 305.916107,172.958008 
M102.288681,108.115517 
	C107.423866,97.494873 115.059921,90.130920 127.285126,88.425781 
	C139.293472,86.750893 149.010605,92.222420 158.695297,99.089180 
	C158.695297,89.634949 158.695297,81.190224 158.695297,72.736855 
	C155.334152,71.668060 152.175339,70.742401 149.070023,69.662849 
	C133.546432,64.266167 118.390938,65.141747 103.791252,72.658134 
	C80.668594,84.562424 72.761192,106.033386 69.100342,129.680252 
	C66.819969,144.410095 68.078514,159.173645 71.931671,173.630905 
	C76.283707,189.960007 85.040260,202.782883 100.733665,210.298737 
	C116.427612,217.814835 132.401871,217.844772 148.533707,212.349899 
	C152.089264,211.138794 157.267059,209.234940 158.105042,206.534988 
	C160.514496,198.771957 161.084732,190.438095 162.570312,181.120148 
	C159.830460,182.546753 158.240982,183.320114 156.702682,184.184540 
	C149.021271,188.500854 141.210556,192.325348 132.214661,193.214096 
	C122.863724,194.137909 109.026108,190.491226 104.831215,180.938934 
	C101.618752,173.623795 98.815628,165.842209 97.604286,157.994293 
	C95.040581,141.384705 96.855896,124.898415 102.288681,108.115517 
M286.076324,62.427906 
	C290.670013,66.847519 295.263733,71.267128 300.717072,76.513794 
	C298.729492,66.345955 290.139160,58.126053 283.015106,58.912704 
	C283.962830,60.054459 284.751221,61.004230 286.076324,62.427906 
z"/>
<path fill="#FFFFFF" opacity="1.000000" stroke="none" 
	d="
M22.036764,10.588779 
	C21.343346,10.533557 20.649925,10.478335 19.352243,10.119526 
	C12.831986,9.543959 6.915993,9.271979 1.000000,9.000000 
	C1.000000,6.336873 1.000000,3.673745 1.000000,1.005309 
	C108.020897,1.000000 215.041794,1.000000 322.525635,1.414263 
	C322.649536,4.477948 322.310455,7.127369 321.971405,9.776791 
	C320.493622,9.909588 319.015869,10.158037 317.538055,10.158442 
	C267.086334,10.172265 216.634598,10.162572 165.517517,9.838159 
	C162.108459,9.874094 159.364777,10.228139 156.229401,10.573179 
	C154.272934,10.652398 152.708191,10.740622 151.143433,10.828846 
	C148.475266,10.686893 145.807098,10.544939 142.440735,10.107404 
	C141.255692,9.714089 140.768036,9.527101 140.282059,9.531327 
	C100.866882,9.874240 61.451828,10.232059 22.036764,10.588779 
z"/>
<path fill="#FFFFFF" opacity="1.000000" stroke="none" 
	d="
M1.000000,290.500000 
	C108.016029,289.999695 215.032059,289.999359 322.513672,290.371216 
	C322.986145,291.828949 322.993073,292.914459 323.000000,294.000000 
	C215.666687,294.000000 108.333374,294.000000 1.000029,294.000000 
	C1.000000,293.000000 1.000000,292.000000 1.000000,290.500000 
z"/>
<path fill="#EDEDED" opacity="1.000000" stroke="none" 
	d="
M323.500000,294.000000 
	C322.993073,292.914459 322.986145,291.828949 322.979004,290.336304 
	C322.996338,197.777405 323.015137,105.625587 323.015228,13.473772 
	C323.015228,12.495523 322.769745,11.517274 322.305145,10.157907 
	C322.310455,7.127369 322.649536,4.477948 322.994293,1.414264 
	C323.666656,1.166668 324.850708,1.229747 324.908508,1.518319 
	C325.133118,2.640016 325.000000,3.833333 325.000000,5.000000 
	C325.000000,100.000000 325.004089,195.000000 324.958466,289.999969 
	C324.957825,291.333496 324.333313,292.666656 323.500000,294.000000 
z"/>
<path fill="#C2C2C2" opacity="1.000000" stroke="none" 
	d="
M1.000000,247.399994 
	C7.567028,247.107773 14.247211,248.068283 20.078373,243.629745 
	C20.889578,243.012253 23.089790,242.958572 23.732502,243.583878 
	C28.143566,247.875427 32.310959,252.417435 36.556801,256.878815 
	C36.418892,257.445129 36.280979,258.011444 36.143066,258.577759 
	C24.713884,258.577759 13.284700,258.577759 1.427758,258.788879 
	C1.000000,257.285645 1.000000,255.571274 1.382239,253.358093 
	C5.832972,252.628830 9.901466,252.398407 13.969960,252.167969 
	C13.951694,251.778641 13.933428,251.389328 13.915162,251.000000 
	C9.610108,251.000000 5.305054,251.000000 1.000000,251.000000 
	C1.000000,249.933334 1.000000,248.866653 1.000000,247.399994 
z"/>
<path fill="#989898" opacity="1.000000" stroke="none" 
	d="
M1.000000,270.399994 
	C19.755575,267.720154 38.278328,269.239502 56.709122,272.259369 
	C56.687756,272.752472 56.666386,273.245575 56.645020,273.738678 
	C38.397255,273.738678 20.149490,273.738678 1.450862,273.869324 
	C1.000000,272.933319 1.000000,271.866669 1.000000,270.399994 
z"/>
<path fill="#BABABA" opacity="1.000000" stroke="none" 
	d="
M17.513439,42.300343 
	C12.217146,37.056187 6.920854,31.812027 1.312280,26.783936 
	C1.000000,22.975456 1.000000,18.950911 1.308135,14.452576 
	C1.818868,13.944098 2.021465,13.909411 2.224062,13.874724 
	C7.377784,20.348688 12.531507,26.822651 17.808474,33.905991 
	C18.593966,36.770679 19.256212,39.025997 20.022781,41.636600 
	C19.570467,41.756241 18.541954,42.028294 17.513439,42.300343 
z"/>
<path fill="#909090" opacity="1.000000" stroke="none" 
	d="
M0.999999,225.416656 
	C2.570723,224.788086 4.138394,224.445297 5.713203,224.408569 
	C6.831416,224.382492 7.959259,224.769318 9.082802,224.971832 
	C8.444164,225.962189 8.024616,227.310806 7.119010,227.864609 
	C5.486773,228.862778 3.563525,229.385071 1.380919,230.053070 
	C1.000000,228.611115 1.000000,227.222214 0.999999,225.416656 
z"/>
<path fill="#9C9C9C" opacity="1.000000" stroke="none" 
	d="
M2.098627,13.427265 
	C2.021465,13.909411 1.818868,13.944098 1.308135,13.989393 
	C1.000000,12.611111 1.000000,11.222222 1.000000,9.416666 
	C6.915993,9.271979 12.831986,9.543959 19.006393,10.079841 
	C14.509439,10.467946 9.744494,10.463320 5.006076,10.815553 
	C3.947338,10.894255 2.981696,12.225323 2.098627,13.427265 
z"/>
<path fill="#9C9C9C" opacity="1.000000" stroke="none" 
	d="
M1.000000,251.333328 
	C5.305054,251.000000 9.610108,251.000000 13.915162,251.000000 
	C13.933428,251.389328 13.951694,251.778641 13.969960,252.167969 
	C9.901466,252.398407 5.832972,252.628830 1.382239,252.929626 
	C1.000000,252.555557 1.000000,252.111099 1.000000,251.333328 
z"/>
<path fill="#EEEEEE" opacity="1.000000" stroke="none" 
	d="
M304.216187,176.030396 
	C303.791138,177.421356 303.366089,178.812317 302.482544,180.630417 
	C301.834595,181.865814 301.645142,182.674072 301.455658,183.482346 
	C298.499237,196.328018 291.749451,207.326004 284.140503,217.764282 
	C280.358856,222.952103 280.868011,227.644363 283.901855,232.456039 
	C289.380859,241.145691 295.116119,249.673660 300.727875,258.279907 
	C301.079865,258.819672 301.289490,259.452271 301.693054,260.314606 
	C296.056244,264.269531 290.030090,263.882446 284.839050,260.767059 
	C278.206635,256.786621 272.082886,251.854858 266.154266,246.842957 
	C262.398804,243.668213 259.532288,242.115189 254.928986,245.651230 
	C252.322647,247.653320 248.373352,247.907135 245.028915,248.948380 
	C244.571564,248.319717 244.114227,247.691055 243.656876,247.062408 
	C245.689209,244.524887 247.395172,241.607971 249.817642,239.523956 
	C256.043488,234.167999 256.310211,232.902176 251.861115,225.923386 
	C238.760605,205.374054 225.740952,184.773178 212.669907,164.205017 
	C211.870926,162.947754 211.097748,161.540970 209.956573,160.670380 
	C208.727554,159.732758 206.930481,158.670166 205.664444,158.948792 
	C204.784134,159.142532 203.853210,161.506943 203.848114,162.904907 
	C203.797913,176.732025 203.845139,190.561478 204.096039,204.386078 
	C204.148392,207.270813 205.150711,210.138321 205.807022,213.481232 
	C195.531479,213.481232 185.826233,213.481232 175.837479,213.481232 
	C174.373627,165.454361 178.827606,117.578934 174.182785,69.868622 
	C174.384460,69.724289 174.520218,69.541992 174.655396,69.542419 
	C197.033997,69.612732 219.558929,66.603615 241.692719,72.089737 
	C254.001526,75.140633 262.340118,85.982437 264.124695,98.501495 
	C265.689117,109.476387 265.189148,120.008949 260.966736,130.255325 
	C256.690979,140.631119 248.608521,146.773300 238.201782,150.228989 
	C236.701279,150.727234 235.255508,151.390381 233.662125,152.026001 
	C243.293610,176.438721 259.970520,195.915848 274.270935,218.775726 
	C279.664978,210.009964 284.614990,201.965744 289.955383,193.337341 
	C290.466248,191.045319 290.586792,189.337463 290.707336,187.629593 
	C291.978882,185.595551 293.281952,183.580338 294.511627,181.521301 
	C295.432159,179.979874 296.258148,178.381958 297.595215,176.413940 
	C300.121613,172.473160 302.167755,174.841156 304.216187,176.030396 
M206.921921,133.960434 
	C212.875473,133.931580 218.867371,134.316956 224.773026,133.770523 
	C232.398209,133.064972 236.684906,128.152664 236.786346,120.465622 
	C236.862946,114.660751 236.424957,108.847343 236.160934,103.040245 
	C235.925217,97.855919 232.978790,94.703987 228.571686,92.280373 
	C222.001450,88.667168 215.037430,89.889069 208.117447,89.862053 
	C203.969437,89.845863 202.468643,91.996971 202.463058,95.718773 
	C202.447357,106.195869 202.261749,116.680603 202.642746,127.144135 
	C202.724335,129.384735 204.913559,131.548599 206.921921,133.960434 
z"/>
<path fill="#EFEFEF" opacity="1.000000" stroke="none" 
	d="
M102.151382,108.479813 
	C96.855896,124.898415 95.040581,141.384705 97.604286,157.994293 
	C98.815628,165.842209 101.618752,173.623795 104.831215,180.938934 
	C109.026108,190.491226 122.863724,194.137909 132.214661,193.214096 
	C141.210556,192.325348 149.021271,188.500854 156.702682,184.184540 
	C158.240982,183.320114 159.830460,182.546753 162.570312,181.120148 
	C161.084732,190.438095 160.514496,198.771957 158.105042,206.534988 
	C157.267059,209.234940 152.089264,211.138794 148.533707,212.349899 
	C132.401871,217.844772 116.427612,217.814835 100.733665,210.298737 
	C85.040260,202.782883 76.283707,189.960007 71.931671,173.630905 
	C68.078514,159.173645 66.819969,144.410095 69.100342,129.680252 
	C72.761192,106.033386 80.668594,84.562424 103.791252,72.658134 
	C118.390938,65.141747 133.546432,64.266167 149.070023,69.662849 
	C152.175339,70.742401 155.334152,71.668060 158.695297,72.736855 
	C158.695297,81.190224 158.695297,89.634949 158.695297,99.089180 
	C149.010605,92.222420 139.293472,86.750893 127.285126,88.425781 
	C115.059921,90.130920 107.423866,97.494873 102.151382,108.479813 
z"/>
<path fill="#E5E5E5" opacity="1.000000" stroke="none" 
	d="
M28.505966,182.537903 
	C28.152719,181.205276 27.799473,179.872635 27.252060,177.818649 
	C25.636889,169.074738 24.215883,161.052170 22.794876,153.029617 
	C23.114689,144.656250 23.434504,136.282898 23.905998,127.167114 
	C25.158199,120.044441 26.258717,113.664200 27.359234,107.283951 
	C31.820009,96.176765 38.739033,86.597000 45.591801,76.888115 
	C50.528316,69.894150 54.061043,61.924732 58.666992,54.674431 
	C60.482407,51.816765 63.389339,49.588604 66.011940,47.319653 
	C73.795532,40.585636 81.519127,33.733292 92.579018,32.907074 
	C94.278175,32.780136 95.985611,31.702841 97.534866,30.800165 
	C108.901901,24.177156 121.680176,22.196127 134.250504,19.521282 
	C139.250275,18.457378 144.250534,17.395670 150.022003,16.206242 
	C153.555725,15.350857 156.318008,14.622193 159.080292,13.893530 
	C161.994156,18.311678 167.010925,17.102314 171.066132,18.008257 
	C177.960098,19.548389 185.070526,20.119675 192.522354,21.530899 
	C193.202423,23.081196 193.450119,24.198687 193.256470,25.303406 
	C179.569763,24.939257 166.324387,24.587877 152.742996,24.190538 
	C151.615295,24.478809 150.823593,24.813042 149.618805,25.140011 
	C140.091232,27.215015 130.369110,26.918089 121.667526,31.964157 
	C119.335121,32.626080 117.374054,33.394863 115.412979,34.163643 
	C115.058067,34.281475 114.703148,34.399307 113.766899,34.709885 
	C110.828064,35.664043 108.293457,36.092525 106.140289,37.238018 
	C82.955803,49.572296 63.326897,65.748528 50.622932,89.277184 
	C44.579880,100.469360 41.081879,112.491592 38.985081,125.371758 
	C34.635609,142.209656 35.027752,158.673218 40.145008,174.774048 
	C42.439960,181.994843 46.467861,188.664856 49.683548,195.740479 
	C49.791790,196.168869 49.985546,196.395157 50.238983,196.575012 
	C50.732082,197.468033 51.225178,198.361053 51.784691,199.960541 
	C54.457615,204.495865 57.064125,208.324692 59.802319,212.473984 
	C63.828480,216.659668 67.722954,220.524902 71.617432,224.390137 
	C88.397285,240.847244 108.329529,251.351852 131.469376,255.399826 
	C140.111588,256.911652 148.915771,257.598022 157.676514,258.255798 
	C159.672028,258.405640 162.240555,257.377502 163.762436,256.016296 
	C166.775360,253.321350 169.241119,252.833466 172.301590,255.769150 
	C173.095154,256.530365 174.676376,256.470398 176.563705,256.858276 
	C177.869843,256.524139 178.508087,256.119354 179.146332,255.714539 
	C180.826752,255.549332 182.507172,255.384109 184.756256,255.412476 
	C185.917282,255.189865 186.509628,254.773666 187.101974,254.357468 
	C187.999435,254.124481 188.896896,253.891510 190.476318,253.763580 
	C192.151611,253.436005 193.144958,253.003372 194.138290,252.570740 
	C195.750778,251.990982 197.363281,251.411240 199.635437,250.872711 
	C200.942062,250.493744 201.589035,250.073578 202.235992,249.653412 
	C202.585251,249.572998 202.934525,249.492599 203.558472,249.725830 
	C203.817795,250.863693 203.802414,251.687881 203.787033,252.512085 
	C203.412506,252.675278 203.037979,252.838440 201.994873,253.019592 
	C194.329910,255.779724 187.383804,258.662018 180.313980,261.199554 
	C177.202774,262.316254 174.430573,263.364929 174.027054,267.149200 
	C172.361191,267.307037 170.695328,267.464905 168.318695,267.549011 
	C166.557404,267.723206 165.506851,267.971191 164.456299,268.219177 
	C146.146301,269.578552 127.656487,270.524872 110.192986,264.003510 
	C80.701309,252.990479 55.068573,236.447891 38.128105,208.809326 
	C37.869026,208.386627 37.522888,208.017273 37.001625,206.959473 
	C37.057880,198.951614 31.991581,193.538513 29.831997,187.073868 
	C29.833418,186.605637 29.834839,186.137421 29.817982,185.100327 
	C29.368456,183.866943 28.937210,183.202423 28.505966,182.537903 
z"/>
<path fill="#393939" opacity="1.000000" stroke="none" 
	d="
M39.100048,124.998436 
	C41.081879,112.491592 44.579880,100.469360 50.622932,89.277184 
	C63.326897,65.748528 82.955803,49.572296 106.140289,37.238018 
	C108.293457,36.092525 110.828064,35.664043 113.580872,34.922672 
	C113.266930,36.928387 112.557686,38.914070 111.351349,40.816528 
	C110.571030,40.845547 110.287811,40.957794 110.004593,41.070042 
	C110.004593,41.070042 110.005615,41.004444 109.653961,40.995773 
	C108.657173,41.114056 107.963211,41.128464 107.373962,41.384171 
	C83.914787,51.564407 67.966927,69.691116 55.207382,91.074692 
	C54.537533,92.197289 55.739346,94.436707 56.069809,96.156189 
	C55.332787,97.733940 54.595764,99.311699 53.455589,100.648865 
	C53.084854,99.675659 53.117268,98.943047 53.149689,98.210449 
	C52.286190,98.698402 50.850033,99.016983 50.647850,99.700546 
	C48.645676,106.469627 46.847824,113.299141 44.992146,120.111557 
	C45.004353,120.885956 45.016560,121.660355 44.608875,122.750366 
	C42.885193,123.718765 41.581402,124.371552 39.982433,125.014252 
	C39.491524,125.002258 39.295784,125.000343 39.100048,124.998436 
z"/>
<path fill="#9C9C9C" opacity="1.000000" stroke="none" 
	d="
M22.198864,10.896530 
	C61.451828,10.232059 100.866882,9.874240 140.282059,9.531327 
	C140.768036,9.527101 141.255692,9.714089 142.004776,10.070303 
	C140.465408,10.489062 138.663803,10.789016 136.862228,10.788838 
	C105.896370,10.785777 74.930519,10.745604 43.964664,10.713925 
	C42.331276,10.712255 40.697887,10.713710 37.497753,10.713710 
	C39.426090,13.342109 40.392895,15.130225 41.793793,16.461567 
	C44.017773,18.575132 43.864891,20.160152 41.699810,22.246086 
	C39.591633,24.277197 37.953873,25.182217 35.421261,22.778027 
	C31.205032,18.775583 26.728109,15.047752 22.198864,10.896530 
z"/>
<path fill="#818181" opacity="1.000000" stroke="none" 
	d="
M56.348591,95.949463 
	C55.739346,94.436707 54.537533,92.197289 55.207382,91.074692 
	C67.966927,69.691116 83.914787,51.564407 107.373962,41.384171 
	C107.963211,41.128464 108.657173,41.114056 109.684448,41.007866 
	C108.946777,42.436943 108.115700,44.363632 106.662346,45.173187 
	C92.563286,53.026737 80.165771,63.012222 70.005661,75.476822 
	C64.917221,81.719421 61.048008,88.955818 56.348591,95.949463 
z"/>
<path fill="#AFAFAF" opacity="1.000000" stroke="none" 
	d="
M304.523651,175.869781 
	C302.167755,174.841156 300.121613,172.473160 297.733215,176.076691 
	C299.725830,164.505951 302.024536,152.872055 304.411530,141.256332 
	C304.651672,140.087723 305.426636,139.029037 305.953369,137.919357 
	C306.580811,138.035950 307.208252,138.152557 307.835693,138.269165 
	C307.835693,141.451416 307.749542,144.636581 307.856720,147.815247 
	C308.002563,152.139969 306.004578,156.673187 309.429596,160.742691 
	C310.074310,161.508713 309.228333,163.529358 308.570404,165.393768 
	C302.414124,166.350754 304.065399,169.784744 305.212708,173.018768 
	C305.085510,173.915573 304.958313,174.812378 304.523651,175.869781 
z"/>
<path fill="#121212" opacity="1.000000" stroke="none" 
	d="
M235.929840,50.027664 
	C232.724792,48.583511 229.519760,47.139355 226.306290,45.120590 
	C226.369675,43.682491 226.831696,42.355797 226.448227,42.032745 
	C224.385300,40.294868 222.112228,38.806446 219.968201,36.695381 
	C220.047195,35.799885 220.069687,35.440922 220.479996,35.115601 
	C223.095749,35.024200 225.323715,34.899162 227.958954,34.849594 
	C230.028488,35.575027 231.722534,36.154800 233.346039,36.890312 
	C236.260391,38.210625 239.132370,39.624519 242.022049,40.999298 
	C242.022049,40.999298 241.997620,41.003872 242.108887,41.215176 
	C242.487366,41.619236 242.754608,41.811993 243.021851,42.004745 
	C243.021851,42.004745 242.995483,42.002144 243.036133,42.340607 
	C243.330261,44.463467 243.583740,46.247868 243.837219,48.032269 
	C243.437515,48.030865 243.037827,48.029461 242.327393,47.676159 
	C241.640305,46.714279 241.263992,46.104294 240.887665,45.494312 
	C240.595993,46.337200 240.304321,47.180084 240.012665,48.022968 
	C240.012665,48.022968 239.998642,48.000080 239.672470,48.025078 
	C238.207474,48.709274 237.068665,49.368469 235.929840,50.027664 
z"/>
<path fill="#505050" opacity="1.000000" stroke="none" 
	d="
M174.306885,267.379456 
	C174.430573,263.364929 177.202774,262.316254 180.313980,261.199554 
	C187.383804,258.662018 194.329910,255.779724 201.697098,253.092438 
	C202.331818,255.710556 202.595734,258.273773 202.941986,261.636658 
	C197.116608,262.956421 190.349045,264.533936 183.558899,266.007416 
	C180.591980,266.651215 177.578873,267.082153 174.306885,267.379456 
z"/>
<path fill="#4D4D4D" opacity="1.000000" stroke="none" 
	d="
M22.537893,153.168823 
	C24.215883,161.052170 25.636889,169.074738 27.066809,177.525269 
	C20.905760,179.442230 20.163033,178.855423 19.014240,172.616318 
	C18.266655,168.556152 16.934881,164.599014 16.272594,160.529358 
	C15.856435,157.972107 16.195053,155.292053 16.195053,152.629791 
	C18.437109,152.879654 20.359009,153.093842 22.537893,153.168823 
z"/>
<path fill="#9C9C9C" opacity="1.000000" stroke="none" 
	d="
M227.551666,34.774120 
	C225.323715,34.899162 223.095749,35.024200 220.204483,34.950020 
	C215.712708,33.817028 211.884247,32.883259 208.026184,31.965862 
	C207.996597,31.982235 208.059265,31.964634 208.011932,31.653339 
	C207.593491,31.198231 207.222351,31.054419 206.561371,30.859680 
	C205.692703,30.856037 205.113892,30.903324 204.282333,30.650738 
	C200.585663,28.672636 197.141739,26.994406 193.697815,25.316175 
	C193.450119,24.198687 193.202423,23.081196 192.906799,21.647594 
	C204.495148,25.268677 216.131439,29.205872 228.013214,33.395164 
	C228.023026,34.022884 227.787354,34.398502 227.551666,34.774120 
z"/>
<path fill="#4D4D4D" opacity="1.000000" stroke="none" 
	d="
M26.974657,107.228653 
	C26.258717,113.664200 25.158199,120.044441 23.826998,126.779915 
	C21.968943,126.937920 20.341570,126.740707 17.710241,126.421822 
	C19.384121,119.356529 20.998781,112.541191 22.632273,105.646378 
	C23.972479,106.163445 25.281279,106.668404 26.974657,107.228653 
z"/>
<path fill="#4D4D4D" opacity="1.000000" stroke="none" 
	d="
M71.768089,224.055542 
	C67.722954,220.524902 63.828480,216.659668 60.151863,212.401703 
	C60.588043,209.707901 60.806362,207.406860 61.024685,205.105804 
	C63.879360,208.152527 66.739380,211.194244 69.586678,214.247849 
	C71.266006,216.048874 72.925163,217.868698 74.833488,219.940765 
	C73.849503,221.216919 72.884125,222.468918 71.768089,224.055542 
z"/>
<path fill="#505050" opacity="1.000000" stroke="none" 
	d="
M29.367687,187.058838 
	C31.991581,193.538513 37.057880,198.951614 36.775017,206.703629 
	C29.403990,203.616455 25.481173,196.350800 27.036415,188.818481 
	C27.179010,188.127869 28.258789,187.630753 29.367687,187.058838 
z"/>
<path fill="#747475" opacity="1.000000" stroke="none" 
	d="
M191.005737,33.028625 
	C183.630493,32.672020 176.255264,32.315411 168.061172,32.090347 
	C166.170303,31.167803 165.098267,30.113710 164.403015,28.878712 
	C173.809494,29.459734 182.839233,30.221664 191.621704,31.148258 
	C191.251541,31.884823 191.128647,32.456726 191.005737,33.028625 
z"/>
<path fill="#AFAFAF" opacity="1.000000" stroke="none" 
	d="
M40.277611,125.024338 
	C41.581402,124.371552 42.885193,123.718765 44.519981,123.127380 
	C44.852371,129.798294 44.853764,136.407806 44.404175,143.489517 
	C42.927227,143.995651 41.901253,144.029572 40.815315,143.649536 
	C40.596104,137.165176 40.436859,131.094757 40.277611,125.024338 
z"/>
<path fill="#676767" opacity="1.000000" stroke="none" 
	d="
M285.807983,62.190956 
	C284.751221,61.004230 283.962830,60.054459 283.015106,58.912704 
	C290.139160,58.126053 298.729492,66.345955 300.717072,76.513794 
	C295.263733,71.267128 290.670013,66.847519 285.807983,62.190956 
z"/>
<path fill="#909090" opacity="1.000000" stroke="none" 
	d="
M50.718613,181.062241 
	C50.794167,181.494461 50.869720,181.926666 50.722435,182.868561 
	C50.987728,183.922440 51.475868,184.466629 51.964012,185.010818 
	C52.292542,186.112610 52.621067,187.214401 52.532635,188.659760 
	C51.309418,189.130814 50.503159,189.258286 49.696636,189.335861 
	C49.696369,189.285965 49.701748,189.186340 49.767323,188.870270 
	C49.301739,188.005020 48.770576,187.455826 48.169048,186.515594 
	C46.180111,178.880600 44.261547,171.636642 42.782654,164.296112 
	C43.818295,164.132309 44.414268,164.065063 45.010242,163.997803 
	C46.014385,167.066345 47.018528,170.134872 47.797909,173.774414 
	C48.074539,174.888214 48.575932,175.431000 49.077324,175.973785 
	C49.183369,176.599442 49.289417,177.225098 49.280655,178.508911 
	C49.683437,179.798798 50.201027,180.430527 50.718613,181.062241 
z"/>
<path fill="#989898" opacity="1.000000" stroke="none" 
	d="
M45.385990,120.145630 
	C46.847824,113.299141 48.645676,106.469627 50.647850,99.700546 
	C50.850033,99.016983 52.286190,98.698402 53.149689,98.210449 
	C53.117268,98.943047 53.084854,99.675659 53.122459,100.745338 
	C51.507450,106.637772 49.892578,112.216331 48.071171,117.726608 
	C47.752274,118.691368 46.565689,119.369308 45.385990,120.145630 
z"/>
<path fill="#909090" opacity="1.000000" stroke="none" 
	d="
M151.926498,32.650806 
	C148.273376,32.817677 144.620239,32.984550 140.201111,33.167603 
	C138.975342,33.519218 138.515594,33.854660 138.055847,34.190102 
	C136.944168,34.442627 135.832474,34.695148 134.365875,34.575050 
	C134.020508,33.512455 134.030090,32.822475 134.444611,32.089081 
	C142.566727,31.029083 150.283936,30.012501 158.157227,29.287573 
	C158.631622,30.111486 158.949921,30.643747 158.972626,31.137417 
	C158.085602,31.490997 157.494202,31.883169 156.902786,32.275337 
	C156.497009,32.319561 156.091217,32.363785 155.269928,32.061424 
	C153.878448,32.026829 152.902481,32.338818 151.926498,32.650806 
z"/>
<path fill="#3C3C3C" opacity="1.000000" stroke="none" 
	d="
M60.879154,204.893921 
	C60.806362,207.406860 60.588043,209.707901 60.020180,212.081238 
	C57.064125,208.324692 54.457615,204.495865 51.984398,200.313965 
	C54.840809,200.385757 57.602673,200.667007 60.247890,201.380630 
	C60.675560,201.496002 60.584763,203.533203 60.879154,204.893921 
z"/>
<path fill="#242424" opacity="1.000000" stroke="none" 
	d="
M243.936829,48.370346 
	C243.583740,46.247868 243.330261,44.463467 243.038971,42.327660 
	C246.790894,44.621273 250.580627,47.266300 254.462692,49.975769 
	C250.511826,54.277966 249.507019,54.058704 243.936829,48.370346 
M247.586014,48.513035 
	C247.586014,48.513035 247.475937,48.576344 247.586014,48.513035 
z"/>
<path fill="#676767" opacity="1.000000" stroke="none" 
	d="
M204.535080,30.950611 
	C205.113892,30.903324 205.692703,30.856037 206.568787,31.204845 
	C207.263794,31.722172 207.661530,31.843405 208.059265,31.964634 
	C208.059265,31.964634 207.996597,31.982235 207.813141,32.278275 
	C207.698517,33.064106 207.767334,33.553905 207.873901,34.396683 
	C207.886002,35.456657 207.860336,36.163647 207.834671,36.870640 
	C203.467026,35.995407 199.099396,35.120174 194.408173,33.744507 
	C194.114899,32.577110 194.145218,31.910141 194.539673,31.380964 
	C198.114243,31.329376 201.324661,31.139994 204.535080,30.950611 
z"/>
<path fill="#191919" opacity="1.000000" stroke="none" 
	d="
M207.836136,34.043701 
	C207.767334,33.553905 207.698517,33.064106 207.842743,32.261902 
	C211.884247,32.883259 215.712708,33.817028 219.816681,34.916378 
	C220.069687,35.440922 220.047195,35.799885 219.650299,36.691257 
	C218.226898,37.838070 217.177887,38.452477 215.787109,39.013912 
	C214.304306,39.296268 213.163269,39.631599 212.022232,39.966927 
	C211.030304,39.242756 210.038376,38.518585 209.248383,37.246742 
	C208.912247,35.813946 208.374191,34.928822 207.836136,34.043701 
z"/>
<path fill="#909090" opacity="1.000000" stroke="none" 
	d="
M204.129898,252.699860 
	C203.802414,251.687881 203.817795,250.863693 203.828003,249.722809 
	C207.581375,247.840698 211.339935,246.275284 215.202484,244.666565 
	C215.721390,248.921906 215.721390,248.921906 204.129898,252.699860 
z"/>
<path fill="#242424" opacity="1.000000" stroke="none" 
	d="
M159.268234,31.176006 
	C158.949921,30.643747 158.631622,30.111486 158.223694,28.931931 
	C160.417160,26.117361 162.365814,26.492773 164.026245,29.059618 
	C165.098267,30.113710 166.170303,31.167803 167.634781,32.252182 
	C165.405746,34.819244 162.619644,36.379292 159.083435,33.096512 
	C159.112122,31.999744 159.190186,31.587875 159.268234,31.176006 
z"/>
<path fill="#676767" opacity="1.000000" stroke="none" 
	d="
M216.128876,39.066887 
	C217.177887,38.452477 218.226898,37.838070 219.593796,37.227791 
	C222.112228,38.806446 224.385300,40.294868 226.448227,42.032745 
	C226.831696,42.355797 226.369675,43.682491 226.157715,44.851994 
	C222.847382,43.936752 219.677185,42.715500 216.261917,40.927547 
	C216.054184,39.929527 216.091522,39.498207 216.128876,39.066887 
z"/>
<path fill="#AFAFAF" opacity="1.000000" stroke="none" 
	d="
M45.003708,163.530060 
	C44.414268,164.065063 43.818295,164.132309 42.722214,163.873703 
	C42.135857,160.698410 42.049610,157.848953 42.251587,154.728424 
	C43.266457,151.660767 43.993103,148.864212 44.719749,146.067642 
	C44.812225,151.732529 44.904701,157.397415 45.003708,163.530060 
z"/>
<path fill="#989898" opacity="1.000000" stroke="none" 
	d="
M17.659304,42.610424 
	C18.541954,42.028294 19.570467,41.756241 20.022781,41.636600 
	C19.256212,39.025997 18.593966,36.770679 18.024452,34.156731 
	C20.722046,35.829960 23.326908,37.861828 25.931770,39.893692 
	C25.832880,40.504047 25.733988,41.114407 25.635098,41.724762 
	C23.025122,42.123341 20.415144,42.521923 17.659304,42.610424 
z"/>
<path fill="#676767" opacity="1.000000" stroke="none" 
	d="
M159.105835,13.522166 
	C156.318008,14.622193 153.555725,15.350857 150.376129,16.013245 
	C150.334473,14.495565 150.710114,13.044160 151.114594,11.210800 
	C152.708191,10.740622 154.272934,10.652398 156.597763,10.699640 
	C157.874207,10.870110 158.390564,10.905113 158.906937,10.940117 
	C158.981750,11.677012 159.056580,12.413907 159.105835,13.522166 
z"/>
<path fill="#747475" opacity="1.000000" stroke="none" 
	d="
M134.039673,32.132500 
	C134.030090,32.822475 134.020508,33.512455 134.020081,34.547367 
	C130.815155,35.496265 127.601097,36.100227 124.201797,36.040825 
	C124.040276,34.633724 124.063995,33.889980 124.501526,33.083748 
	C127.956787,32.725002 130.998230,32.428749 134.039673,32.132500 
z"/>
<path fill="#242424" opacity="1.000000" stroke="none" 
	d="
M50.691765,196.726456 
	C49.985546,196.395157 49.791790,196.168869 49.779793,195.309067 
	C49.930450,193.560776 49.959023,192.399551 50.357864,191.170380 
	C51.712471,191.041763 52.696804,190.981110 53.681145,190.920471 
	C54.373150,192.595245 55.065155,194.270020 55.252811,195.780182 
	C54.180580,196.058701 53.612701,196.501801 53.044823,196.944885 
	C52.411392,196.922562 51.777969,196.900238 50.691765,196.726456 
z"/>
<path fill="#242424" opacity="1.000000" stroke="none" 
	d="
M227.958954,34.849594 
	C227.787354,34.398502 228.023026,34.022884 228.359879,33.453884 
	C232.942963,35.612663 237.424881,37.964821 241.964417,40.658142 
	C239.132370,39.624519 236.260391,38.210625 233.346039,36.890312 
	C231.722534,36.154800 230.028488,35.575027 227.958954,34.849594 
z"/>
<path fill="#505050" opacity="1.000000" stroke="none" 
	d="
M305.564392,172.988388 
	C304.065399,169.784744 302.414124,166.350754 308.466827,165.838715 
	C307.880768,168.226639 306.898438,170.592316 305.564392,172.988388 
z"/>
<path fill="#909090" opacity="1.000000" stroke="none" 
	d="
M44.830822,145.718414 
	C43.993103,148.864212 43.266457,151.660767 41.979568,154.425598 
	C41.237984,150.950409 41.056633,147.506958 40.875282,144.063492 
	C41.901253,144.029572 42.927227,143.995651 44.337887,143.949478 
	C44.795681,144.414551 44.868786,144.891876 44.830822,145.718414 
z"/>
<path fill="#4D4D4D" opacity="1.000000" stroke="none" 
	d="
M124.087715,33.146240 
	C124.063995,33.889980 124.040276,34.633724 123.961555,35.747375 
	C121.338898,35.618065 118.771225,35.118851 115.808273,34.391640 
	C117.374054,33.394863 119.335121,32.626080 121.818573,32.230240 
	C122.923203,32.784203 123.505455,32.965221 124.087715,33.146240 
z"/>
<path fill="#9C9C9C" opacity="1.000000" stroke="none" 
	d="
M159.369232,10.861716 
	C158.390564,10.905113 157.874207,10.870110 156.989471,10.708645 
	C159.364777,10.228139 162.108459,9.874094 165.074615,9.792753 
	C163.475220,10.304743 161.653381,10.544029 159.369232,10.861716 
z"/>
<path fill="#AFAFAF" opacity="1.000000" stroke="none" 
	d="
M290.402283,187.836121 
	C290.586792,189.337463 290.466248,191.045319 290.057556,192.969025 
	C289.878693,191.470795 289.987946,189.756729 290.402283,187.836121 
z"/>
<path fill="#393939" opacity="1.000000" stroke="none" 
	d="
M194.175537,31.243172 
	C194.145218,31.910141 194.114899,32.577110 194.080902,33.576706 
	C193.200592,33.783340 192.323959,33.657349 191.226532,33.279991 
	C191.128647,32.456726 191.251541,31.884823 192.006775,31.185295 
	C193.151260,31.119503 193.663391,31.181337 194.175537,31.243172 
z"/>
<path fill="#242424" opacity="1.000000" stroke="none" 
	d="
M215.787109,39.013916 
	C216.091522,39.498207 216.054184,39.929527 215.997711,40.685883 
	C214.867630,40.765194 213.756683,40.519470 212.333984,40.120338 
	C213.163269,39.631599 214.304306,39.296268 215.787109,39.013916 
z"/>
<path fill="#242424" opacity="1.000000" stroke="none" 
	d="
M236.153320,50.283066 
	C237.068665,49.368469 238.207474,48.709274 239.684387,48.030830 
	C238.807251,48.853882 237.592026,49.696175 236.153320,50.283066 
z"/>
<path fill="#747475" opacity="1.000000" stroke="none" 
	d="
M53.699036,190.640045 
	C52.696804,190.981110 51.712471,191.041763 50.314156,190.858124 
	C49.832417,190.204468 49.764660,189.795120 49.696903,189.385757 
	C50.503159,189.258286 51.309418,189.130814 52.524055,189.004639 
	C53.193935,189.457169 53.455433,189.908401 53.699036,190.640045 
z"/>
<path fill="#505050" opacity="1.000000" stroke="none" 
	d="
M164.748215,268.438721 
	C165.506851,267.971191 166.557404,267.723206 167.911133,267.637817 
	C167.156250,268.086334 166.098190,268.372314 164.748215,268.438721 
z"/>
<path fill="#AFAFAF" opacity="1.000000" stroke="none" 
	d="
M193.810760,252.465210 
	C193.144958,253.003372 192.151611,253.436005 190.822968,253.727509 
	C191.486176,253.177490 192.484695,252.768585 193.810760,252.465210 
z"/>
<path fill="#242424" opacity="1.000000" stroke="none" 
	d="
M207.873901,34.396683 
	C208.374191,34.928822 208.912247,35.813946 209.181625,36.918526 
	C208.732285,37.098457 208.551620,37.058926 208.102814,36.945015 
	C207.860336,36.163647 207.886002,35.456657 207.873901,34.396683 
z"/>
<path fill="#242424" opacity="1.000000" stroke="none" 
	d="
M240.350037,48.024925 
	C240.304321,47.180084 240.595993,46.337200 240.887665,45.494312 
	C241.263992,46.104294 241.640305,46.714279 242.027634,47.673157 
	C241.588226,48.023659 241.137817,48.025269 240.350037,48.024925 
z"/>
<path fill="#747475" opacity="1.000000" stroke="none" 
	d="
M152.333527,32.760918 
	C152.902481,32.338818 153.878448,32.026829 154.978790,31.957529 
	C154.315613,32.423820 153.528091,32.647427 152.333527,32.760918 
z"/>
<path fill="#747475" opacity="1.000000" stroke="none" 
	d="
M51.967010,184.713272 
	C51.475868,184.466629 50.987728,183.922440 50.711784,183.199081 
	C51.272655,183.485184 51.621334,183.950455 51.967010,184.713272 
z"/>
<path fill="#242424" opacity="1.000000" stroke="none" 
	d="
M138.209167,34.394363 
	C138.515594,33.854660 138.975342,33.519218 139.756897,33.272430 
	C139.506638,33.773602 138.934555,34.186115 138.209167,34.394363 
z"/>
<path fill="#AFAFAF" opacity="1.000000" stroke="none" 
	d="
M178.860779,255.583771 
	C178.508087,256.119354 177.869843,256.524139 176.939178,256.840027 
	C177.289597,256.318420 177.932419,255.885727 178.860779,255.583771 
z"/>
<path fill="#AFAFAF" opacity="1.000000" stroke="none" 
	d="
M186.804474,254.253174 
	C186.509628,254.773666 185.917282,255.189865 185.180573,255.388062 
	C185.526474,254.829681 186.016724,254.489288 186.804474,254.253174 
z"/>
<path fill="#747475" opacity="1.000000" stroke="none" 
	d="
M158.972626,31.137417 
	C159.190186,31.587875 159.112122,31.999744 159.020172,32.727303 
	C158.506195,32.945831 158.006088,32.848671 157.204376,32.513424 
	C157.494202,31.883169 158.085602,31.490997 158.972626,31.137417 
z"/>
<path fill="#909090" opacity="1.000000" stroke="none" 
	d="
M201.947418,249.521423 
	C201.589035,250.073578 200.942062,250.493744 200.005524,250.807098 
	C200.363586,250.263321 201.011230,249.826370 201.947418,249.521423 
z"/>
<path fill="#747475" opacity="1.000000" stroke="none" 
	d="
M49.083611,175.673599 
	C48.575932,175.431000 48.074539,174.888214 47.798866,174.169403 
	C48.379688,174.453384 48.734791,174.913391 49.083611,175.673599 
z"/>
<path fill="#747475" opacity="1.000000" stroke="none" 
	d="
M50.767818,180.750473 
	C50.201027,180.430527 49.683437,179.798798 49.258751,178.828110 
	C49.840111,179.138992 50.328568,179.788849 50.767818,180.750473 
z"/>
<path fill="#AFAFAF" opacity="1.000000" stroke="none" 
	d="
M301.698425,183.292770 
	C301.645142,182.674072 301.834595,181.865814 302.362335,180.976196 
	C302.447479,181.630951 302.194366,182.367081 301.698425,183.292770 
z"/>
<path fill="#505050" opacity="1.000000" stroke="none" 
	d="
M28.377277,182.917953 
	C28.937210,183.202423 29.368456,183.866943 29.711697,184.764618 
	C29.165323,184.431183 28.706957,183.864594 28.377277,182.917953 
z"/>
<path fill="#3C3C3C" opacity="1.000000" stroke="none" 
	d="
M53.339920,196.935394 
	C53.612701,196.501801 54.180580,196.058701 54.935493,195.845688 
	C54.626694,196.359161 54.130856,196.642517 53.339920,196.935394 
z"/>
<path fill="#242424" opacity="1.000000" stroke="none" 
	d="
M242.910141,41.780342 
	C242.754608,41.811993 242.487366,41.619236 242.107056,41.202888 
	C242.262115,41.171509 242.530273,41.363720 242.910141,41.780342 
z"/>
<path fill="#818181" opacity="1.000000" stroke="none" 
	d="
M110.285828,41.275173 
	C110.287811,40.957794 110.571030,40.845547 110.989853,40.898911 
	C110.939331,41.203110 110.753204,41.341705 110.285828,41.275173 
z"/>
<path fill="#121212" opacity="1.000000" stroke="none" 
	d="
M206.526886,133.854126 
	C204.913559,131.548599 202.724335,129.384735 202.642746,127.144135 
	C202.261749,116.680603 202.447357,106.195869 202.463058,95.718773 
	C202.468643,91.996971 203.969437,89.845863 208.117447,89.862053 
	C215.037430,89.889069 222.001450,88.667168 228.571686,92.280373 
	C232.978790,94.703987 235.925217,97.855919 236.160934,103.040245 
	C236.424957,108.847343 236.862946,114.660751 236.786346,120.465622 
	C236.684906,128.152664 232.398209,133.064972 224.773026,133.770523 
	C218.867371,134.316956 212.875473,133.931580 206.526886,133.854126 
z"/>
<path fill="#191919" opacity="1.000000" stroke="none" 
	d="
M194.539673,31.380964 
	C193.663391,31.181337 193.151260,31.119503 192.254028,31.020632 
	C182.839233,30.221664 173.809494,29.459734 164.403015,28.878712 
	C162.365814,26.492773 160.417160,26.117361 158.067596,28.640278 
	C150.283936,30.012501 142.566727,31.029083 134.444611,32.089081 
	C130.998230,32.428749 127.956787,32.725002 124.501526,33.083748 
	C123.505455,32.965221 122.923203,32.784203 122.189896,32.337097 
	C130.369110,26.918089 140.091232,27.215015 149.799683,25.382446 
	C151.288757,25.166925 152.183884,24.701708 153.079010,24.236496 
	C166.324387,24.587877 179.569763,24.939257 193.256470,25.303406 
	C197.141739,26.994406 200.585663,28.672636 204.282333,30.650740 
	C201.324661,31.139994 198.114243,31.329376 194.539673,31.380964 
z"/>
<path fill="#3C3C3C" opacity="1.000000" stroke="none" 
	d="
M49.696636,189.335861 
	C49.764660,189.795120 49.832417,190.204468 49.943886,190.926086 
	C49.959023,192.399551 49.930450,193.560776 49.805630,195.153397 
	C46.467861,188.664856 42.439960,181.994843 40.145008,174.774048 
	C35.027752,158.673218 34.635609,142.209656 38.985081,125.371758 
	C39.295784,125.000343 39.491524,125.002258 39.982437,125.014259 
	C40.436859,131.094757 40.596104,137.165176 40.815315,143.649536 
	C41.056633,147.506958 41.237984,150.950409 41.691353,154.696686 
	C42.049610,157.848953 42.135857,160.698410 42.282543,163.970276 
	C44.261547,171.636642 46.180111,178.880600 48.131485,186.825577 
	C48.676777,188.079849 49.189262,188.633087 49.701748,189.186340 
	C49.701748,189.186340 49.696369,189.285965 49.696636,189.335861 
z"/>
<path fill="#4D4D4D" opacity="1.000000" stroke="none" 
	d="
M152.742996,24.190536 
	C152.183884,24.701708 151.288757,25.166925 150.212769,25.389709 
	C150.823593,24.813042 151.615295,24.478809 152.742996,24.190536 
z"/>
<path fill="#191919" opacity="1.000000" stroke="none" 
	d="
M208.011932,31.653339 
	C207.661530,31.843405 207.263794,31.722172 206.858643,31.255774 
	C207.222351,31.054419 207.593491,31.198231 208.011932,31.653339 
z"/>
<path fill="#747475" opacity="1.000000" stroke="none" 
	d="
M49.767323,188.870270 
	C49.189262,188.633087 48.676777,188.079849 48.201859,187.216614 
	C48.770576,187.455826 49.301739,188.005020 49.767323,188.870270 
z"/>
<path fill="#121212" opacity="1.000000" stroke="none" 
	d="
M247.530975,48.544689 
	C247.475937,48.576344 247.586014,48.513035 247.530975,48.544689 
z"/>
</svg>